<svg width="512" height="512" viewBox="0 0 512 512" fill="none" xmlns="http://www.w3.org/2000/svg">
  <!-- Sharp Fox Logo Concept -->
  <defs>
    <linearGradient id="foxBody" x1="0%" y1="0%" x2="100%" y2="100%">
      <stop offset="0%" stop-color="#FF6B4A" />
      <stop offset="100%" stop-color="#FF8266" />
    </linearGradient>
    <filter id="glow" x="-20%" y="-20%" width="140%" height="140%">
      <feGaussianBlur stdDeviation="5" result="blur" />
      <feComposite in="SourceGraphic" in2="blur" operator="over" />
    </filter>
  </defs>

  <!-- Sharp Pointy Ears -->
  <path d="M140 160L80 40L220 120L140 160Z" fill="#E6513A" />
  <path d="M372 160L432 40L292 120L372 160Z" fill="#E6513A" />
  
  <!-- Sleek Head Shape -->
  <path d="M256 460L100 280C100 280 120 140 256 140C392 140 412 280 412 280L256 460Z" fill="url(#foxBody)" />
  
  <!-- Cream Face "Sharp" Accents -->
  <path d="M256 460L160 320C160 320 200 250 256 250C312 250 352 320 352 320L256 460Z" fill="#F5E6D3" />
  
  <!-- Sharp, Focused Eyes (Slight angled slits for alertness) -->
  <path d="M180 295L225 305L190 315L180 295Z" fill="#0A0A0A" />
  <path d="M332 295L287 305L322 315L332 295Z" fill="#0A0A0A" />
  
  <!-- Small Highlight in eyes for life -->
  <circle cx="205" cy="305" r="3" fill="white" />
  <circle cx="307" cy="305" r="3" fill="white" />

  <!-- Ninja-style small sharp nose -->
  <path d="M256 440L248 425H264L256 440Z" fill="#0A0A0A" />

  <!-- Minimalist Premium Graduation Cap -->
  <path d="M180 100L256 60L332 100L256 140L180 100Z" fill="#1A1A1A" />
  <path d="M220 125V140C220 140 240 150 256 150C272 150 292 140 292 140V125L256 140L220 125Z" fill="#0A0A0A" />
  
  <!-- Gold Tassel (Orange Accent) -->
  <path d="M332 100V160" stroke="#FFB74D" stroke-width="4" stroke-linecap="round" />
  <circle cx="332" cy="165" r="6" fill="#FFB74D" />
</svg>
